# xmcd
#
# Track frame offsets:
#	150
#	13825
#	32585
#	47577
#	63717
#	78517
#	90950
#	103015
#	117302
#	129962
#	140165
#	152967
#	166670
#	179505
#	195022
#
# Disc length: 2762 seconds
#
# Revision: 2
# Processed by: cddbd v1.5.1PL0 Copyright (c) Steve Scherf et al.
# Submitted via: EasyCDDAExtractor 6.0.0.1
#
DISCID=be0ac80f
DTITLE=Various Artist - VARIOS ARTISTAS
DYEAR=1900
DGENRE=Country
TTITLE0=Carlos y José - Los Barón de Apodaca - Fidencio Ayala - etc - AMORES F
TTITLE0=INGIDOS
TTITLE1=Carlos y José - Los Barón de Apodaca - Fidencio Ayala - etc - LOS AÑOS
TTITLE1=VIEJOS
TTITLE2=Carlos y José - Los Barón de Apodaca - Fidencio Ayala - etc - CUANDO N
TTITLE2=ADIE TE QUIERA
TTITLE3=Carlos y José - Los Barón de Apodaca - Fidencio Ayala - etc - POR ESA 
TTITLE3=CALLE VIVE
TTITLE4=Carlos y José - Los Barón de Apodaca - Fidencio Ayala - etc - CHIQUILL
TTITLE4=A CARIÑOSA
TTITLE5=Carlos y José - Los Barón de Apodaca - Fidencio Ayala - etc - ERES TOD
TTITLE5=O TODO
TTITLE6=Carlos y José - Los Barón de Apodaca - Fidencio Ayala - etc - UN POQUI
TTITLE6=TIN DE AMOR
TTITLE7=Carlos y José - Los Barón de Apodaca - Fidencio Ayala - etc - PERO HOM
TTITLE7=BRE AMIGO (EL CHUBASCO)
TTITLE8=Carlos y José - Los Barón de Apodaca - Fidencio Ayala - etc - FLOR DE 
TTITLE8=CAPOMO
TTITLE9=LOS MEJORES 15 EXITOS NORTEÑOS - AGUANTA CORAZON
TTITLE10=Carlos y José - Los Barón de Apodaca - Fidencio Ayala - etc - MI CASA
TTITLE10=NUEVA
TTITLE11=Carlos y José - Los Barón de Apodaca - Fidencio Ayala - etc - ESLABON
TTITLE11=POR ESLABON
TTITLE12=Carlos y José - Los Barón de Apodaca - Fidencio Ayala - etc - MI GOLO
TTITLE12=NDRINA
TTITLE13=Carlos y José - Los Barón de Apodaca - Fidencio Ayala - etc - DOS MON
TTITLE13=EDAS
TTITLE14=Carlos y José - Los Barón de Apodaca - Fidencio Ayala - etc - BONITA 
TTITLE14=FINCA DE ADOBE
EXTD=
EXTT0=
EXTT1=
EXTT2=
EXTT3=
EXTT4=
EXTT5=
EXTT6=
EXTT7=
EXTT8=
EXTT9=
EXTT10=
EXTT11=
EXTT12=
EXTT13=
EXTT14=
PLAYORDER=
